<?xml version="1.0" encoding="UTF-8" standalone="no"?>
<!DOCTYPE svg PUBLIC "-//W3C//DTD SVG 1.1//EN" "http://www.w3.org/Graphics/SVG/1.1/DTD/svg11.dtd">
<svg width="100%" height="100%" viewBox="0 0 64 64" version="1.1" xmlns="http://www.w3.org/2000/svg" xmlns:xlink="http://www.w3.org/1999/xlink" xml:space="preserve" xmlns:serif="http://www.serif.com/" style="fill-rule:evenodd;clip-rule:evenodd;stroke-linejoin:round;stroke-miterlimit:2;">
    <rect x="0" y="0" width="64" height="64" style="fill:none;"/>
    <g transform="matrix(1.12425,0,0,1.12425,-3.97589,-7.12862)">
        <g transform="matrix(1,0,0,1,0,2.8043)">
            <path d="M19,55.338C18.004,55.338 17.16,54.605 17.02,53.619C16.154,47.519 13.229,26.907 12.248,19.995C12.166,19.421 12.338,18.841 12.717,18.403C13.097,17.965 13.648,17.714 14.228,17.714L49.772,17.714C50.352,17.714 50.903,17.965 51.283,18.403C51.662,18.841 51.834,19.421 51.752,19.995C50.771,26.907 47.846,47.519 46.98,53.619C46.84,54.605 45.996,55.338 45,55.338C39.773,55.338 24.227,55.338 19,55.338ZM19.748,23.852C19.667,22.879 20.39,22.025 21.364,21.943C21.364,21.943 21.365,21.943 21.365,21.943C22.339,21.862 23.193,22.585 23.274,23.558C23.712,28.81 25.004,44.319 25.441,49.571C25.522,50.544 24.799,51.399 23.826,51.48C23.825,51.48 23.825,51.48 23.824,51.48C22.851,51.561 21.997,50.838 21.915,49.865C21.478,44.613 20.186,29.104 19.748,23.852ZM33.769,23.475C33.769,22.498 32.977,21.707 32.001,21.707C32,21.707 32,21.707 31.999,21.707C31.023,21.707 30.231,22.498 30.231,23.475C30.231,28.745 30.231,44.307 30.231,49.577C30.231,50.554 31.023,51.345 31.999,51.345C32,51.345 32,51.345 32.001,51.345C32.977,51.345 33.769,50.554 33.769,49.577C33.769,44.307 33.769,28.745 33.769,23.475ZM44.392,23.712C44.473,22.738 43.75,21.884 42.777,21.803C42.776,21.803 42.776,21.803 42.775,21.803C41.802,21.722 40.947,22.445 40.866,23.418C40.429,28.67 39.137,44.178 38.699,49.43C38.618,50.403 39.341,51.258 40.314,51.339C40.315,51.339 40.316,51.339 40.316,51.339C41.289,51.42 42.144,50.697 42.225,49.724C42.663,44.472 43.955,28.964 44.392,23.712Z" style="fill:rgb(26,26,26);"/>
        </g>
        <g transform="matrix(1,0,0,1,0,2.8043)">
            <path d="M24.852,11.825L24.852,10.662C24.852,10.132 25.063,9.623 25.438,9.248C25.813,8.873 26.322,8.662 26.852,8.662C29.576,8.662 34.424,8.662 37.148,8.662C37.678,8.662 38.187,8.873 38.562,9.248C38.937,9.623 39.148,10.132 39.148,10.662L39.148,11.825L50.209,11.825C51.683,11.825 52.877,13.019 52.877,14.493C52.877,14.493 52.877,14.494 52.877,14.494C52.877,14.934 52.703,15.355 52.392,15.665C52.082,15.976 51.66,16.15 51.221,16.15C44.523,16.15 19.477,16.15 12.779,16.15C12.34,16.15 11.918,15.976 11.608,15.665C11.297,15.355 11.123,14.934 11.123,14.494C11.123,14.494 11.123,14.493 11.123,14.493C11.123,13.019 12.317,11.825 13.791,11.825L24.852,11.825Z" style="fill:rgb(26,26,26);"/>
        </g>
    </g>
</svg>
